<?xml version="1.0" encoding="UTF-8" standalone="no"?>
<!-- Created with Inkscape (http://www.inkscape.org/) -->

<svg
   width="100mm"
   height="50mm"
   viewBox="0 0 99.999999 50"
   version="1.1"
   id="svg1"
   sodipodi:docname="flameendl.svg"
   inkscape:version="1.4.2 (ebf0e940, 2025-05-08)"
   xmlns:inkscape="http://www.inkscape.org/namespaces/inkscape"
   xmlns:sodipodi="http://sodipodi.sourceforge.net/DTD/sodipodi-0.dtd"
   xmlns="http://www.w3.org/2000/svg"
   xmlns:svg="http://www.w3.org/2000/svg">
  <sodipodi:namedview
     id="namedview1"
     pagecolor="#ffffff"
     bordercolor="#000000"
     borderopacity="0.25"
     inkscape:showpageshadow="2"
     inkscape:pageopacity="0.0"
     inkscape:pagecheckerboard="0"
     inkscape:deskcolor="#d1d1d1"
     inkscape:document-units="mm"
     inkscape:zoom="3.3316832"
     inkscape:cx="199.59881"
     inkscape:cy="83.441306"
     inkscape:window-width="2240"
     inkscape:window-height="1119"
     inkscape:window-x="0"
     inkscape:window-y="25"
     inkscape:window-maximized="0"
     inkscape:current-layer="svg1" />
  <defs
     id="defs1" />
  <path
     id="rect1-8"
     style="fill:#ffb316;stroke:none;stroke-width:5.44749;stroke-linecap:square;stroke-dasharray:none"
     d="M 9.9999064 1.6469279 L 5.4513468 6.7406738 L 2.9243693 21.548556 L 5.2828817 37.53621 L 9.9999064 43.359627 L 12.735657 46.611108 L 16.701306 42.45684 L 20.554818 45.160034 L 24.970052 42.05273 L 29.047839 45.563627 L 33.463074 42.194324 L 37.203931 45.609102 L 41.282235 48.309196 L 45.360539 39.75778 L 49.438326 47.699931 L 50.651172 45.739844 L 52.954907 42.017074 L 57.594417 45.019991 L 61.784859 42.309562 L 65.751025 43.783374 L 69.828813 48.716406 L 73.907117 43.245422 L 77.985421 46.78009 L 82.063208 48.54484 L 86.141512 42.293542 L 89.882369 44.615881 L 94.297603 43.016496 L 96.354325 47.978467 L 100.0001 45.516602 L 100.0001 3.8085531 L 97.926839 2.1507731 L 94.185465 6.7587606 L 90.219299 5.0823771 L 90.000191 5.2885661 L 86.141512 8.9209025 L 82.063208 3.4633545 L 77.985421 4.872054 L 73.907117 2.0531047 L 69.828813 7.4114339 L 65.751025 7.3478719 L 61.672721 3.1005859 L 57.594417 6.7169027 L 53.51663 6.3934082 L 50.651172 3.6576579 L 49.438326 2.499589 L 44.910954 4.7986735 L 40.945304 2.0562052 L 37.203931 4.7919556 L 33.126143 3.1667318 L 29.047839 9.2872884 L 24.970052 2.289266 L 20.891748 5.94434 L 16.813444 8.7441691 L 12.735657 5.0033122 L 9.9999064 1.6469279 z " />
  <path
     id="path3-0"
     style="fill:#fff651;fill-opacity:1;stroke:none;stroke-width:4.65891;stroke-linecap:square;stroke-dasharray:none"
     d="M 9.9999064 7.7773031 L 7.0238607 14.057023 L 5.7882772 22.527307 L 7.2481364 30.210559 L 7.8661865 36.041211 L 12.735657 40.665735 L 16.701306 37.626644 L 20.554818 39.604301 L 24.970052 37.331571 L 29.047839 39.899373 L 33.463074 37.434924 L 37.203931 39.932963 L 41.282235 41.90752 L 45.360539 35.653121 L 49.438326 41.462069 L 50.651172 40.028564 L 52.954907 37.305216 L 57.594417 39.501982 L 61.784859 37.519674 L 65.751025 38.597644 L 69.828813 42.205693 L 73.907117 38.20387 L 77.985421 40.789242 L 82.063208 42.080119 L 86.141512 37.507271 L 89.882369 39.206392 L 94.297603 38.036438 L 96.354325 41.665674 L 100.0001 39.865267 L 100.0001 9.3580851 L 97.926839 8.145756 L 94.185465 11.516093 L 90.219299 10.290328 L 90.000191 10.441223 L 86.141512 13.097909 L 82.063208 9.1059041 L 77.985421 10.136332 L 73.907117 8.0744425 L 69.828813 11.993583 L 65.751025 11.947074 L 61.672721 8.8402873 L 57.594417 11.485604 L 53.51663 11.248926 L 50.651172 9.2480143 L 49.438326 8.4010376 L 44.910954 10.082589 L 40.945304 8.0765096 L 37.203931 10.077421 L 33.126143 8.8888631 L 29.047839 13.365592 L 24.970052 8.2470418 L 20.891748 10.920264 L 16.813444 12.968201 L 12.735657 10.231934 L 9.9999064 7.7773031 z " />
  <path
     id="path2-4"
     style="fill:#ffd801;fill-opacity:1;stroke:none;stroke-width:4.15863;stroke-linecap:square;stroke-dasharray:none"
     d="M 73.907117 11.250476 L 69.828813 14.373283 L 65.751025 14.336593 L 61.672721 11.860775 L 57.594417 13.968656 L 53.51663 13.780037 L 49.438326 11.510925 L 47.618799 12.049394 L 44.910954 12.850895 L 40.945304 11.252543 L 37.203931 12.846761 L 33.126143 11.900049 L 29.047839 15.466756 L 24.970052 11.388452 L 20.891748 13.518555 L 16.813444 15.14998 L 12.735657 12.969751 L 9.9435791 13.597103 L 9.6629761 19.562113 L 8.0346517 23.449215 L 10.280509 28.628227 L 10.112044 33.695101 L 12.735657 37.2184 L 16.701306 34.797359 L 20.554818 36.372457 L 24.970052 34.561715 L 29.047839 36.608101 L 33.463074 34.644397 L 37.203931 36.634456 L 41.282235 38.208004 L 45.360539 33.224329 L 47.618799 35.78748 L 49.438326 37.852987 L 52.954907 34.541044 L 57.594417 36.291325 L 61.784859 34.711576 L 65.751025 35.570439 L 69.828813 38.445199 L 73.907117 35.257279 L 77.985421 37.317102 L 82.063208 38.345463 L 86.141512 34.702275 L 89.882369 36.05568 L 94.297603 35.123437 L 96.354325 38.015251 L 100.0001 36.580713 L 100.0001 12.273669 L 97.926839 11.307837 L 94.185465 13.992944 L 90.219299 13.01626 L 90.000191 13.136666 L 86.141512 15.253333 L 82.063208 12.072648 L 77.985421 12.893787 L 73.907117 11.250476 z " />
</svg>
