<?xml version="1.0" encoding="UTF-8" standalone="no"?>
<!-- Created with Inkscape (http://www.inkscape.org/) -->

<svg
   width="50mm"
   height="100mm"
   viewBox="0 0 50 100"
   version="1.1"
   id="svg1"
   sodipodi:docname="flameendd.svg"
   inkscape:version="1.4.2 (ebf0e940, 2025-05-08)"
   xmlns:inkscape="http://www.inkscape.org/namespaces/inkscape"
   xmlns:sodipodi="http://sodipodi.sourceforge.net/DTD/sodipodi-0.dtd"
   xmlns="http://www.w3.org/2000/svg"
   xmlns:svg="http://www.w3.org/2000/svg">
  <sodipodi:namedview
     id="namedview1"
     pagecolor="#ffffff"
     bordercolor="#000000"
     borderopacity="0.25"
     inkscape:showpageshadow="2"
     inkscape:pageopacity="0.0"
     inkscape:pagecheckerboard="0"
     inkscape:deskcolor="#d1d1d1"
     inkscape:document-units="mm"
     inkscape:zoom="2.3558558"
     inkscape:cx="224.97133"
     inkscape:cy="193.98471"
     inkscape:window-width="2240"
     inkscape:window-height="1119"
     inkscape:window-x="0"
     inkscape:window-y="25"
     inkscape:window-maximized="0"
     inkscape:current-layer="svg1"
     showgrid="false" />
  <defs
     id="defs1" />
  <path
     id="rect1"
     style="fill:#ffb316;stroke:none;stroke-width:5.44749;stroke-linecap:square;stroke-dasharray:none"
     d="M 4.1211955 0 L 4.4224691 0.50126139 L 0.52916667 4.5790487 L 7.873938 8.6573527 L 6.2802368 9.9983561 L 3.0266886 12.735657 L 7.180957 16.701306 L 4.4777629 20.554818 L 7.5850667 24.970052 L 4.0736532 29.047839 L 7.4429565 33.463074 L 4.0286947 37.203931 L 1.3286011 41.282235 L 9.8800171 45.360539 L 1.9378662 49.438326 L 7.6207235 52.954907 L 5.4012207 56.384155 L 4.617806 57.594417 L 7.3282349 61.784859 L 5.854423 65.751025 L 0.92139079 69.828813 L 6.3923747 73.907117 L 2.8577067 77.985421 L 1.0929565 82.063208 L 7.3442546 86.141512 L 5.0219157 89.882369 L 13.264307 94.769409 L 23.528796 96.511938 L 37.25199 94.716182 L 44.349231 90.000191 L 40.716895 86.141512 L 46.174443 82.063208 L 44.765743 77.985421 L 47.584692 73.907117 L 42.226363 69.828813 L 42.289925 65.751025 L 46.537211 61.672721 L 42.920894 57.594417 L 43.017013 56.384155 L 43.244389 53.51663 L 47.138208 49.438326 L 44.839124 44.910954 L 47.581592 40.945304 L 44.845841 37.203931 L 46.471065 33.126143 L 46.470549 33.126143 L 40.350509 29.047839 L 47.348531 24.970052 L 43.693457 20.891748 L 40.893628 16.813444 L 44.634485 12.735657 L 47.990869 9.9999064 L 49.637797 8.6573527 L 43.857271 6.3081421 L 42.89764 5.4513468 L 40.916366 5.113383 L 39.601717 4.5790487 L 47.389355 0.50126139 L 45.829244 0 L 4.1211955 0 z " />
  <path
     id="path3"
     style="fill:#fff651;fill-opacity:1;stroke:none;stroke-width:4.65891;stroke-linecap:square;stroke-dasharray:none"
     d="M 9.7725301 0 L 9.9931885 0.50126139 L 7.1453003 4.5790487 L 12.517582 8.6573527 L 8.9720622 12.735657 L 12.010636 16.701306 L 10.033496 20.554818 L 12.306226 24.970052 L 9.7379069 29.047839 L 12.202356 33.463074 L 9.704834 37.203931 L 7.7302775 41.282235 L 13.984676 45.360539 L 8.1757284 49.438326 L 12.332581 52.954907 L 10.135815 57.594417 L 11.51661 60.513619 L 11.517126 60.513619 L 12.11864 61.784859 L 11.040153 65.751025 L 7.4321045 69.828813 L 11.433927 73.907117 L 8.8485555 77.985421 L 7.5576782 82.063208 L 12.130526 86.141512 L 10.431405 89.882369 L 15.469857 93.733297 L 26.9012 94.447465 L 35.729085 92.997941 L 39.196574 90.000191 L 36.539889 86.141512 L 40.531893 82.063208 L 39.501465 77.985421 L 41.563354 73.907117 L 37.644214 69.828813 L 37.690723 65.751025 L 40.79751 61.672721 L 40.045618 60.513619 L 38.152193 57.594417 L 38.388871 53.51663 L 41.236759 49.438326 L 39.555208 44.910954 L 41.561287 40.945304 L 39.560376 37.203931 L 40.748934 33.126143 L 36.272205 29.047839 L 41.390755 24.970052 L 38.717533 20.891748 L 36.669596 16.813444 L 39.405863 12.735657 L 41.860494 9.9999064 L 43.065072 8.6573527 L 35.724434 4.5790487 L 41.420728 0.50126139 L 40.279712 0 L 9.7725301 0 z " />
  <path
     id="path2"
     style="fill:#ffd801;fill-opacity:1;stroke:none;stroke-width:4.15863;stroke-linecap:square;stroke-dasharray:none"
     d="M 13.057084 0 L 13.232784 0.50126139 L 10.963672 4.5790487 L 15.244031 8.6573527 L 12.419397 12.735657 L 14.840438 16.701306 L 13.264823 20.554818 L 15.075566 24.970052 L 13.029696 29.047839 L 14.9934 33.463074 L 13.003341 37.203931 L 11.429793 41.282235 L 16.413468 45.360539 L 11.78481 49.438326 L 15.096753 52.954907 L 13.346472 57.594417 L 14.926221 61.784859 L 14.067358 65.751025 L 12.609049 67.819633 L 11.192598 69.828813 L 14.381034 73.907117 L 12.320695 77.985421 L 11.292334 82.063208 L 14.936039 86.141512 L 13.582117 89.882369 L 16.050183 91.976298 L 22.98361 93.256323 L 28.389482 92.422266 L 33.279106 92.302893 L 36.501131 90.000191 L 34.384465 86.141512 L 37.565149 82.063208 L 36.74401 77.985421 L 38.387321 73.907117 L 35.264514 69.828813 L 35.282601 67.819633 L 35.301204 65.751025 L 37.777022 61.672721 L 35.669141 57.594417 L 35.85776 53.51663 L 38.126872 49.438326 L 36.786902 44.910954 L 38.385254 40.945304 L 36.791036 37.203931 L 37.737748 33.126143 L 34.171041 29.047839 L 38.249345 24.970052 L 36.119242 20.891748 L 34.487817 16.813444 L 36.668046 12.735657 L 36.668046 12.73514 L 39.58363 8.6573527 L 33.734892 4.5790487 L 38.273116 0.50126139 L 37.364128 0 L 13.057084 0 z " />
</svg>
