<?xml version="1.0" encoding="UTF-8" standalone="no"?>
<!-- Created with Inkscape (http://www.inkscape.org/) -->

<svg
   width="100mm"
   height="50mm"
   viewBox="0 0 99.999999 50"
   version="1.1"
   id="svg1"
   sodipodi:docname="flameendr.svg"
   inkscape:version="1.4.2 (ebf0e940, 2025-05-08)"
   xmlns:inkscape="http://www.inkscape.org/namespaces/inkscape"
   xmlns:sodipodi="http://sodipodi.sourceforge.net/DTD/sodipodi-0.dtd"
   xmlns="http://www.w3.org/2000/svg"
   xmlns:svg="http://www.w3.org/2000/svg">
  <sodipodi:namedview
     id="namedview1"
     pagecolor="#ffffff"
     bordercolor="#000000"
     borderopacity="0.25"
     inkscape:showpageshadow="2"
     inkscape:pageopacity="0.0"
     inkscape:pagecheckerboard="0"
     inkscape:deskcolor="#d1d1d1"
     inkscape:document-units="mm"
     inkscape:zoom="2.3558558"
     inkscape:cx="117.15488"
     inkscape:cy="98.478014"
     inkscape:window-width="2240"
     inkscape:window-height="1119"
     inkscape:window-x="0"
     inkscape:window-y="25"
     inkscape:window-maximized="0"
     inkscape:current-layer="svg1" />
  <defs
     id="defs1" />
  <path
     id="rect1-8"
     style="fill:#ffb316;stroke:none;stroke-width:5.44749;stroke-linecap:square;stroke-dasharray:none"
     d="M 8.6573527 0 L 6.3081421 5.7810425 L 5.4513468 6.7406738 L 5.113383 8.7214315 L 4.5790487 10.03608 L 0.50126139 2.2484416 L 0 3.8085531 L 0 45.517118 L 0.50126139 45.215328 L 4.5790487 49.10863 L 8.6573527 41.763859 L 9.9983561 43.35756 L 9.9999064 43.359627 L 12.735657 46.611108 L 16.701306 42.45684 L 20.554818 45.160034 L 24.970052 42.053247 L 29.047839 45.564144 L 33.463074 42.19484 L 37.203931 45.609619 L 41.282235 48.309196 L 41.329777 48.20946 L 45.360539 39.75778 L 49.438326 47.699931 L 52.954907 42.017074 L 57.594417 45.019991 L 61.784859 42.309562 L 65.751025 43.783374 L 69.828813 48.716406 L 73.907117 43.245422 L 77.985421 46.78009 L 82.063208 48.54484 L 86.141512 42.293542 L 89.882369 44.615881 L 94.769409 36.37349 L 96.511938 26.109001 L 94.716182 12.385807 L 90.000191 5.2885661 L 86.141512 8.9209025 L 82.063208 3.4633545 L 77.985421 4.872054 L 73.907117 2.0531047 L 69.828813 7.4114339 L 65.751025 7.3478719 L 61.672721 3.1005859 L 57.594417 6.7169027 L 53.51663 6.3934082 L 49.438326 2.499589 L 44.910954 4.7986735 L 41.329777 2.3223389 L 40.945304 2.0562052 L 37.203931 4.7919556 L 33.126143 3.1667318 L 33.126143 3.1672485 L 29.047839 9.2872884 L 24.970052 2.289266 L 20.891748 5.94434 L 16.813444 8.7441691 L 12.735657 5.0033122 L 9.9999064 1.6469279 L 8.6573527 0 z " />
  <path
     id="path3-0"
     style="fill:#fff651;fill-opacity:1;stroke:none;stroke-width:4.65891;stroke-linecap:square;stroke-dasharray:none"
     d="M 8.6573527 6.5727254 L 4.5790487 13.913363 L 0.50126139 8.2175863 L 0 9.3586019 L 0 39.865267 L 0.50126139 39.644609 L 4.5790487 42.492497 L 8.6573527 37.120215 L 12.735657 40.665735 L 16.701306 37.627161 L 20.554818 39.604301 L 24.970052 37.331571 L 29.047839 39.89989 L 33.463074 37.435441 L 37.203931 39.932963 L 37.398751 40.027531 L 41.282235 41.90752 L 45.360539 35.653121 L 49.438326 41.462069 L 52.954907 37.305216 L 57.594417 39.501982 L 61.784859 37.519157 L 65.751025 38.597644 L 69.828813 42.205693 L 73.907117 38.20387 L 77.985421 40.789242 L 82.063208 42.080119 L 86.141512 37.507271 L 89.882369 39.206392 L 93.733297 34.16794 L 94.447465 22.736597 L 92.997941 13.908712 L 90.000191 10.441223 L 86.141512 13.097909 L 82.063208 9.1059041 L 77.985421 10.136332 L 73.907117 8.0744425 L 69.828813 11.993583 L 65.751025 11.947074 L 61.672721 8.8402873 L 57.594417 11.485604 L 53.51663 11.248926 L 49.438326 8.4010376 L 44.910954 10.082589 L 40.945304 8.0765096 L 37.398751 9.9730347 L 37.203931 10.077421 L 33.126143 8.8888631 L 33.126143 8.8893799 L 29.047839 13.365592 L 24.970052 8.2470418 L 20.891748 10.920264 L 16.813444 12.968201 L 12.735657 10.231934 L 9.9999064 7.7773031 L 8.6573527 6.5727254 z " />
  <path
     id="path2-2"
     style="fill:#ffd801;fill-opacity:1;stroke:none;stroke-width:4.15863;stroke-linecap:square;stroke-dasharray:none"
     d="M 8.6573527 10.054167 L 4.5790487 15.902905 L 0.50126139 11.364681 L 0 12.273669 L 0 36.580713 L 0.50126139 36.405013 L 4.5790487 38.674125 L 8.6573527 34.393766 L 12.735657 37.2184 L 16.701306 34.797359 L 20.554818 36.372974 L 24.970052 34.562231 L 29.047839 36.608101 L 33.463074 34.644397 L 36.38796 36.200374 L 37.203931 36.634456 L 41.282235 38.208004 L 45.360539 33.224329 L 49.438326 37.852987 L 52.954907 34.541044 L 57.594417 36.291325 L 61.784859 34.711576 L 65.751025 35.570439 L 69.828813 38.445199 L 73.907117 35.256763 L 77.985421 37.317102 L 82.063208 38.345463 L 86.141512 34.701758 L 89.882369 36.05568 L 91.976815 33.587614 L 93.256323 26.654187 L 92.422266 21.248315 L 92.30341 16.358691 L 90.000191 13.136666 L 86.141512 15.253333 L 82.063208 12.072648 L 77.985421 12.893787 L 73.907117 11.250476 L 69.828813 14.373283 L 65.751025 14.336593 L 61.672721 11.860775 L 57.594417 13.968656 L 53.51663 13.780037 L 49.438326 11.510925 L 44.910954 12.850895 L 40.945304 11.252543 L 37.203931 12.846761 L 36.38796 12.657109 L 33.126143 11.900049 L 29.047839 15.466756 L 24.970052 11.388452 L 20.891748 13.518555 L 16.813444 15.14998 L 12.735657 12.969751 L 12.73514 12.969751 L 8.6573527 10.054167 z " />
</svg>
