<?xml version="1.0" encoding="UTF-8" standalone="no"?>
<!-- Created with Inkscape (http://www.inkscape.org/) -->

<svg
   width="50mm"
   height="100mm"
   viewBox="0 0 50 100"
   version="1.1"
   id="svg1"
   sodipodi:docname="flameendu.svg"
   inkscape:version="1.4.2 (ebf0e940, 2025-05-08)"
   xmlns:inkscape="http://www.inkscape.org/namespaces/inkscape"
   xmlns:sodipodi="http://sodipodi.sourceforge.net/DTD/sodipodi-0.dtd"
   xmlns="http://www.w3.org/2000/svg"
   xmlns:svg="http://www.w3.org/2000/svg">
  <sodipodi:namedview
     id="namedview1"
     pagecolor="#ffffff"
     bordercolor="#000000"
     borderopacity="0.25"
     inkscape:showpageshadow="2"
     inkscape:pageopacity="0.0"
     inkscape:pagecheckerboard="0"
     inkscape:deskcolor="#d1d1d1"
     inkscape:document-units="mm"
     inkscape:zoom="3.3316832"
     inkscape:cx="41.420505"
     inkscape:cy="103.85141"
     inkscape:window-width="2240"
     inkscape:window-height="1119"
     inkscape:window-x="0"
     inkscape:window-y="25"
     inkscape:window-maximized="0"
     inkscape:current-layer="svg1"
     showgrid="false" />
  <defs
     id="defs1" />
  <path
     id="rect1"
     style="fill:#ffb316;stroke:none;stroke-width:5.44749;stroke-linecap:square;stroke-dasharray:none"
     d="M 28.089242 2.9243693 L 12.101587 5.2828817 L 6.2781698 9.9999064 L 3.0266886 12.735657 L 7.180957 16.701306 L 4.4777629 20.554818 L 7.5850667 24.970052 L 4.0741699 29.047839 L 7.4434733 33.463074 L 4.0286947 37.203931 L 1.3286011 41.282235 L 9.8800171 45.360539 L 1.9378662 49.438326 L 6.7453247 52.413338 L 7.6207235 52.954907 L 4.617806 57.594417 L 7.3282349 61.784859 L 5.854423 65.751025 L 0.92139079 69.828813 L 6.3923747 73.907117 L 2.8577067 77.985421 L 1.0929565 82.063208 L 7.3442546 86.141512 L 5.0219157 89.882369 L 6.6213013 94.297603 L 1.6593302 96.354325 L 4.1211955 100.0001 L 45.829244 100.0001 L 47.487024 97.926839 L 42.879036 94.185465 L 44.55542 90.219299 L 44.349231 90.000191 L 40.716895 86.141512 L 46.174443 82.063208 L 44.765743 77.985421 L 47.584692 73.907117 L 42.226363 69.828813 L 42.289925 65.751025 L 46.537211 61.672721 L 42.920894 57.594417 L 43.244389 53.51663 L 44.297555 52.413338 L 47.138208 49.438326 L 44.839124 44.910954 L 47.581592 40.945304 L 44.845841 37.203931 L 46.471065 33.126143 L 40.350509 29.047839 L 47.348531 24.970052 L 43.693457 20.891748 L 40.893628 16.813444 L 44.634485 12.735657 L 47.990869 9.9999064 L 42.89764 5.4513468 L 28.089242 2.9243693 z " />
  <path
     id="path3-4"
     style="fill:#fff651;fill-opacity:1;stroke:none;stroke-width:4.65891;stroke-linecap:square;stroke-dasharray:none"
     d="M 27.111007 5.7882772 L 19.427238 7.2481364 L 13.596586 7.8661865 L 8.9720622 12.735657 L 12.011153 16.701306 L 10.033496 20.554818 L 12.306226 24.970052 L 9.7384237 29.047839 L 12.202873 33.463074 L 9.704834 37.203931 L 7.7302775 41.282235 L 13.984676 45.360539 L 8.1757284 49.438326 L 8.3131877 49.554598 L 12.332581 52.954907 L 10.135815 57.594417 L 12.118123 61.784859 L 11.040153 65.751025 L 7.4321045 69.828813 L 11.433927 73.907117 L 8.8485555 77.985421 L 7.5576782 82.063208 L 12.130526 86.141512 L 10.431405 89.882369 L 11.601359 94.297603 L 7.9721232 96.354325 L 9.7725301 100.0001 L 40.279712 100.0001 L 41.492041 97.926839 L 38.121704 94.185465 L 39.347469 90.219299 L 39.196574 90.000191 L 36.539889 86.141512 L 40.531893 82.063208 L 39.501465 77.985421 L 41.563354 73.907117 L 37.644214 69.828813 L 37.690723 65.751025 L 40.79751 61.672721 L 38.152193 57.594417 L 38.388871 53.51663 L 41.155627 49.554598 L 41.236759 49.438326 L 39.555208 44.910954 L 41.561287 40.945304 L 39.560376 37.203931 L 40.748934 33.126143 L 36.272205 29.047839 L 41.390755 24.970052 L 38.717533 20.891748 L 36.669596 16.813444 L 39.405863 12.735657 L 41.860494 9.9999064 L 35.580774 7.0238607 L 27.111007 5.7882772 z " />
  <path
     id="path2"
     style="fill:#ffd801;fill-opacity:1;stroke:none;stroke-width:4.15863;stroke-linecap:square;stroke-dasharray:none"
     d="M 26.188582 8.0346517 L 21.00957 10.280509 L 15.943213 10.112044 L 12.419397 12.735657 L 14.840438 16.701306 L 13.26534 20.554818 L 15.076082 24.970052 L 13.029696 29.047839 L 14.9934 33.463074 L 13.003341 37.203931 L 11.429793 41.282235 L 16.413468 45.360539 L 16.340088 45.425134 L 11.78481 49.438326 L 15.096753 52.954907 L 13.346472 57.594417 L 14.926221 61.784859 L 14.067358 65.751025 L 11.192598 69.828813 L 14.380518 73.907117 L 12.320695 77.985421 L 11.292334 82.063208 L 14.935522 86.141512 L 13.582117 89.882369 L 14.51436 94.297603 L 11.622546 96.354325 L 13.057084 100.0001 L 37.364128 100.0001 L 38.32996 97.926839 L 35.644853 94.185465 L 36.621537 90.219299 L 36.501131 90.000191 L 34.384465 86.141512 L 37.565149 82.063208 L 36.74401 77.985421 L 38.387321 73.907117 L 35.264514 69.828813 L 35.301204 65.751025 L 37.777022 61.672721 L 35.669141 57.594417 L 35.85776 53.51663 L 38.126872 49.438326 L 36.938831 45.425134 L 36.786902 44.910954 L 38.385254 40.945304 L 36.791036 37.203931 L 37.737748 33.126143 L 34.171041 29.047839 L 38.249345 24.970052 L 36.119242 20.891748 L 34.487817 16.813444 L 36.668046 12.735657 L 36.041211 9.9435791 L 30.075684 9.6629761 L 26.188582 8.0346517 z " />
</svg>
